<?xml version="1.0" standalone="no"?>
<!DOCTYPE svg PUBLIC "-//W3C//DTD SVG 20010904//EN"
 "http://www.w3.org/TR/2001/REC-SVG-20010904/DTD/svg10.dtd">
<svg version="1.0" xmlns="http://www.w3.org/2000/svg"
 width="200.000000pt" height="200.000000pt" viewBox="0 0 200.000000 200.000000"
 preserveAspectRatio="xMidYMid meet">

<g transform="translate(0.000000,200.000000) scale(0.100000,-0.100000)"
fill="#FFFFFF" stroke="none">
<path d="M845 1986 c-372 -58 -685 -329 -798 -692 -143 -454 69 -960 493
-1178 626 -322 1370 76 1451 778 75 645 -500 1192 -1146 1092z m310 -121 c172
-30 334 -114 461 -240 347 -342 351 -895 9 -1241 -342 -347 -895 -351 -1241
-9 -347 342 -351 895 -9 1241 206 209 489 299 780 249z"/>
<path d="M940 1516 c-110 -153 -330 -365 -520 -498 l-25 -18 25 -17 c189 -134
398 -334 515 -494 l70 -95 74 100 c121 163 321 355 511 489 l25 17 -25 18
c-190 133 -390 325 -511 488 l-75 101 -64 -91z"/>
</g>
</svg>
